# xmcd
#
# Track frame offsets:
#	150
#	15379
#	31521
#	48640
#	70236
#	84220
#	100710
#	120395
#	138816
#	154083
#	173685
#	189924
#	207910
#
# Disc length: 3055 seconds
#
# Revision: 0
# Processed by: cddbd v1.5.2PL0 Copyright (c) Steve Scherf et al.
# Submitted via: EasyCDDAExtractor 10.5.1.1
#
DISCID=910bed0d
DTITLE=Carrie Underwood - Carnival Ride
DYEAR=2007
DGENRE=Country
TTITLE0=Flat On the Floor
TTITLE1=All-American Girl
TTITLE2=So Small
TTITLE3=Just a Dream
TTITLE4=Get Out of This Town
TTITLE5=Crazy Dreams
TTITLE6=I Know You Won't
TTITLE7=Last Name
TTITLE8=You Won't Find This
TTITLE9=I Told You So
TTITLE10=The More Boys I Meet
TTITLE11=Twisted
TTITLE12=Wheel of the World
EXTD=
EXTT0=
EXTT1=
EXTT2=
EXTT3=
EXTT4=
EXTT5=
EXTT6=
EXTT7=
EXTT8=
EXTT9=
EXTT10=
EXTT11=
EXTT12=
PLAYORDER=
